<svg xmlns="http://www.w3.org/2000/svg" viewBox="0 0 1024 1024">
  <defs>
    <filter id="g" x="-20%" y="-20%" width="140%" height="140%">
      <feGaussianBlur in="SourceGraphic" stdDeviation="1" result="b1"/>
      <feGaussianBlur in="SourceGraphic" stdDeviation="1.5" result="b2"/>
      <feMerge>
        <feMergeNode in="b1"/>
        <feMergeNode in="b2"/>
        <feMergeNode in="SourceGraphic"/>
      </feMerge>
    </filter>
  </defs>
  <path fill="#E87D1E" fill-rule="evenodd" filter="url(#g)" d="
    M509 268 Q512 266 515 268
    L656 349 Q659 351 659 354
    L659 508 Q659 511 656 513
    L569 563
    C568 572 515 768 512 765
    C509 768 456 572 455 563
    L368 513 Q365 511 365 508
    L365 354 Q365 351 368 349 Z
    M510 305 Q512 304 514 305
    L621 367 Q623 368 623 371
    L623 492 Q623 494 621 495
    L514 557 L510 557
    L403 495 Q401 494 401 492
    L401 371 Q401 368 403 367 Z"/>
</svg>
